<svg xmlns="http://www.w3.org/2000/svg" xmlns:xlink="http://www.w3.org/1999/xlink" viewBox="0 0 807.29 754.67"><defs><style>.cls-1{isolation:isolate;}.cls-2{fill:#71479e;}.cls-3{fill:none;stroke:#ff534f;stroke-miterlimit:10;stroke-width:2px;}.cls-27,.cls-4,.cls-50,.cls-51,.cls-58{fill:#fff;}.cls-21,.cls-4{opacity:0.4;}.cls-5{fill:url(#linear-gradient);}.cls-6{fill:#fed4d5;}.cls-12,.cls-18,.cls-19,.cls-21,.cls-7,.cls-8,.cls-9{mix-blend-mode:overlay;}.cls-7{fill:url(#Super_Soft_Black_Vignette_2);}.cls-8{fill:url(#Super_Soft_Black_Vignette_2-2);}.cls-13,.cls-16,.cls-9{fill:#231f20;}.cls-10{fill:#fa329c;}.cls-11{fill:#1c75bc;}.cls-12{opacity:0.41;}.cls-14{fill:#3c3c82;}.cls-15,.cls-16{opacity:0.45;}.cls-17{fill:#27aae1;}.cls-18{fill:url(#Super_Soft_Black_Vignette_2-3);}.cls-19{fill:url(#Super_Soft_Black_Vignette_2-4);}.cls-20{fill:#00aeef;}.cls-22{fill:#d4f4f9;}.cls-22,.cls-24,.cls-25{opacity:0.7;}.cls-23{fill:#b5b5b6;opacity:0.6;}.cls-25,.cls-28{fill:#6fceef;}.cls-26{fill:#1e9ed6;}.cls-27{opacity:0.3;}.cls-29{fill:#f7b40d;}.cls-30{fill:#dd970a;}.cls-31{fill:#fac427;}.cls-32{fill:#eaa306;}.cls-33{fill:#5daf0e;}.cls-34{fill:#8c4d37;}.cls-35{fill:#92ce0f;}.cls-36{fill:#a7d81e;}.cls-37{fill:#bde52c;}.cls-38{fill:#c11f46;opacity:0.5;}.cls-39{fill:#e54564;}.cls-40{fill:#dd375f;}.cls-41{fill:#fc566e;}.cls-42{fill:#ef436d;}.cls-43{fill:#ef5076;}.cls-44{fill:#ea3f70;}.cls-45{fill:#ff6c88;}.cls-46{fill:#e03d54;}.cls-47{fill:#f4516d;}.cls-48{fill:#c9caca;}.cls-49{fill:#ff5c1b;}.cls-50{opacity:0.2;}.cls-52{fill:#ffca49;}.cls-53{opacity:0.1;}.cls-54{fill:#ef5673;}.cls-55{fill:#a80b30;}.cls-56{fill:#3e4545;}.cls-57{fill:#e2496d;}.cls-58{opacity:0.15;}.cls-59{fill:#afafaf;}.cls-60{fill:#f26d6d;}.cls-61{fill:#fffaf3;}.cls-62{fill:#d3ccbc;}.cls-63{fill:#473029;}.cls-64{fill:#f14b39;}.cls-65{fill:#27c3d8;}.cls-66{fill:#ffdb2c;}.cls-67{fill:#00913a;}.cls-68{fill:#00c6b7;}</style><linearGradient id="linear-gradient" x1="428.45" y1="228.67" x2="467.99" y2="228.67" gradientTransform="matrix(0.93, 0.06, -0.06, 0.95, 265.48, 170.32)" gradientUnits="userSpaceOnUse"><stop offset="0" stop-color="#fff"/><stop offset="1" stop-color="#dbeaff"/></linearGradient><radialGradient id="Super_Soft_Black_Vignette_2" cx="352.09" cy="-88.57" r="86.24" gradientTransform="matrix(0.89, 0.06, -0.06, 0.91, 260.41, 191.95)" gradientUnits="userSpaceOnUse"><stop offset="0.57" stop-color="#130c0e"/><stop offset="0.8" stop-color="#130c0e"/><stop offset="1" stop-color="#130c0e"/></radialGradient><radialGradient id="Super_Soft_Black_Vignette_2-2" cx="248.85" cy="-91.84" r="85.96" xlink:href="#Super_Soft_Black_Vignette_2"/><radialGradient id="Super_Soft_Black_Vignette_2-3" cx="132.06" cy="46.63" r="57.76" gradientTransform="matrix(0.96, -0.02, 0.02, 0.96, 234.87, 169.55)" xlink:href="#Super_Soft_Black_Vignette_2"/><radialGradient id="Super_Soft_Black_Vignette_2-4" cx="65.74" cy="46.75" r="58.75" gradientTransform="matrix(0.96, -0.02, 0.02, 0.96, 234.87, 169.55)" xlink:href="#Super_Soft_Black_Vignette_2"/></defs><title>Assset 01</title><g class="cls-1"><g id="Layer_2" data-name="Layer 2"><g id="Layer_7" data-name="Layer 7"><polygon class="cls-2" points="147.79 645.6 0 753.89 806.66 753.89 669.77 645.6 147.79 645.6"/><line class="cls-3" x1="37.66" y1="753.89" x2="169.26" y2="646.78"/><line class="cls-3" x1="772.22" y1="753.89" x2="644.93" y2="646.78"/></g><g id="Layer_1-2" data-name="Layer 1"><g id="Layer_9" data-name="Layer 9"><path class="cls-4" d="M403.33,633.37S402,631.71,400,628.6c-1-1.56-2.33-3.48-3.69-5.74s-3-4.85-4.6-7.75a314.27,314.27,0,0,1-22-48.13,399.42,399.42,0,0,1-18-68.05c-2.17-12.45-3.86-25.31-4.94-38.38S345,434.2,345,420.92s.49-26.55,1.61-39.62,2.76-25.93,4.9-38.38a394,394,0,0,1,18-68.05,313,313,0,0,1,22.12-48.13c1.65-2.9,3.17-5.5,4.62-7.76s2.66-4.17,3.72-5.73c2.09-3.11,3.39-4.77,3.39-4.77s1.3,1.66,3.39,4.77c1.06,1.56,2.34,3.48,3.71,5.73s3,4.86,4.63,7.76a313,313,0,0,1,22.12,48.13,394.88,394.88,0,0,1,18,68.05c2.14,12.45,3.86,25.31,4.9,38.38s1.62,26.35,1.61,39.62-.55,26.56-1.71,39.63-2.77,25.93-5,38.38A398.52,398.52,0,0,1,437,567a315.24,315.24,0,0,1-22,48.13c-1.63,2.9-3.16,5.5-4.6,7.75s-2.64,4.18-3.69,5.74C404.62,631.71,403.33,633.37,403.33,633.37Z"/><path class="cls-4" d="M404.28,632.08s-2-.52-5.58-1.73c-1.78-.59-4-1.34-6.42-2.29s-5.3-2-8.37-3.35a315.73,315.73,0,0,1-46.78-24.77,398.56,398.56,0,0,1-55.72-43c-9.31-8.55-18.48-17.72-27.29-27.43s-17.38-19.88-25.49-30.39-15.79-21.36-22.85-32.41-13.61-22.25-19.49-33.42a394.19,394.19,0,0,1-27.17-64.94,311.85,311.85,0,0,1-11.76-51.65c-.46-3.31-.83-6.29-1.06-9s-.43-4.92-.54-6.8c-.24-3.75-.22-5.85-.22-5.85s2,.52,5.6,1.72c1.78.59,4,1.33,6.43,2.28s5.32,2,8.39,3.34a311.78,311.78,0,0,1,46.86,24.7,394.73,394.73,0,0,1,55.71,43c9.27,8.56,18.47,17.72,27.26,27.46s17.33,19.9,25.4,30.44,15.74,21.4,22.77,32.48,13.61,22.25,19.46,33.45a399.57,399.57,0,0,1,27.16,64.94,313.85,313.85,0,0,1,11.83,51.59c.47,3.3.85,6.29,1.08,9s.44,4.93.56,6.8C404.29,630,404.28,632.08,404.28,632.08Z"/><path class="cls-4" d="M404.28,634.29s-2,.71-5.58,1.72c-1.81.51-4,1.13-6.59,1.73s-5.54,1.31-8.8,2a314.45,314.45,0,0,1-52.6,6,399.36,399.36,0,0,1-70.27-4c-12.51-1.79-25.26-4.18-38-7.22s-25.57-6.59-38.2-10.67-25.09-8.71-37.16-13.84-23.8-10.68-35-16.57A395.71,395.71,0,0,1,53,555.14a312.65,312.65,0,0,1-38.88-36c-2.25-2.47-4.24-4.72-5.93-6.8s-3.15-3.82-4.3-5.31c-2.31-3-3.48-4.71-3.48-4.71s2-.72,5.59-1.74c1.8-.52,4-1.15,6.6-1.75s5.53-1.32,8.81-2A312.41,312.41,0,0,1,74,490.79a394.74,394.74,0,0,1,70.28,4c12.49,1.83,25.26,4.19,38,7.26s25.55,6.64,38.17,10.77,25.07,8.77,37.13,13.94,23.79,10.67,35,16.61a398.9,398.9,0,0,1,59.1,38.24,315.77,315.77,0,0,1,38.91,35.89c2.25,2.46,4.24,4.71,5.94,6.78s3.15,3.81,4.3,5.29C403.1,632.54,404.28,634.29,404.28,634.29Z"/><path class="cls-4" d="M403.41,632.08s2-.52,5.58-1.73c1.78-.59,4-1.34,6.42-2.29s5.3-2,8.37-3.35a315.73,315.73,0,0,0,46.78-24.77,398.56,398.56,0,0,0,55.72-43c9.31-8.55,18.48-17.72,27.29-27.43s17.37-19.88,25.49-30.39,15.78-21.36,22.85-32.41,13.6-22.25,19.49-33.42a395.05,395.05,0,0,0,27.17-64.94,312.87,312.87,0,0,0,11.76-51.65c.46-3.31.83-6.29,1.06-9s.43-4.92.54-6.8c.24-3.75.22-5.85.22-5.85s-2,.52-5.6,1.72c-1.78.59-4,1.33-6.44,2.28s-5.31,2-8.38,3.34a311.3,311.3,0,0,0-46.86,24.7,394.73,394.73,0,0,0-55.71,43c-9.28,8.56-18.48,17.72-27.26,27.46S494.57,417.5,486.49,428s-15.73,21.4-22.76,32.48S450.12,482.77,444.27,494a399.57,399.57,0,0,0-27.16,64.94,313.85,313.85,0,0,0-11.83,51.59c-.47,3.3-.85,6.29-1.08,9s-.44,4.93-.56,6.8C403.39,630,403.41,632.08,403.41,632.08Z"/><path class="cls-4" d="M403.41,634.29s2,.71,5.58,1.72c1.8.51,4,1.13,6.59,1.73s5.53,1.31,8.8,2a314.45,314.45,0,0,0,52.6,6,399.42,399.42,0,0,0,70.27-4c12.51-1.79,25.26-4.18,38-7.22s25.57-6.59,38.2-10.67,25.09-8.71,37.16-13.84,23.8-10.68,35-16.57a395.07,395.07,0,0,0,59.09-38.24,312.12,312.12,0,0,0,38.89-36c2.24-2.47,4.24-4.72,5.93-6.8s3.14-3.82,4.3-5.31c2.3-3,3.48-4.71,3.48-4.71s-2-.72-5.59-1.74c-1.81-.52-4-1.15-6.6-1.75s-5.54-1.32-8.81-2a312.55,312.55,0,0,0-52.62-6.08,394.63,394.63,0,0,0-70.27,4c-12.49,1.83-25.26,4.19-38,7.26s-25.55,6.64-38.17,10.77-25.07,8.77-37.13,13.94-23.8,10.67-35,16.61a398.9,398.9,0,0,0-59.1,38.24,315,315,0,0,0-38.91,35.89c-2.25,2.46-4.24,4.71-5.94,6.78s-3.15,3.81-4.3,5.29C404.59,632.54,403.41,634.29,403.41,634.29Z"/></g><path class="cls-5" d="M649.12,409.17c.79,7.25,35.82,15.4,35.82,15.4S648.33,401.92,649.12,409.17Z"/><path class="cls-6" d="M549.73,22.19s-.63-18.51-3.62-20.3-6.74,25.05-.39,32.6S612,124.14,611.1,129.86s-39.25,37.19-43.73,58-11.89,28.35,14.94,47.52c0,0,73.87-70.27,71.66-100.25S549.73,22.19,549.73,22.19Z"/><path class="cls-7" d="M622.88,132.73c.84-5.14-62.46-83.92-80-105.35a15.65,15.65,0,0,0,2.79,7.11C552.06,42,612,124.14,611.1,129.86s-39.25,37.19-43.73,58-11.89,28.35,14.94,47.52c0,0,1.37-1.31,3.62-3.52C569,217.09,575.21,209,579.15,190.72,583.64,169.92,622,138.45,622.88,132.73Z"/><path class="cls-6" d="M541.76,0c-3.26,1.2-7.28,19.28-7.28,19.28S419,81.75,411.34,110.81s52,111.9,52,111.9c29.89-13.82,24-22.62,23.4-43.9s-32.47-59.37-32.34-65.16,74.12-75.26,81.74-81.5S545-1.16,541.76,0Z"/><path class="cls-8" d="M442.32,114.27c-.13,5.79,31.75,43.88,32.34,65.16.52,18.74,5.12,27.81-14.2,39.15,1.81,2.59,2.91,4.13,2.91,4.13,29.88-13.82,24-22.62,23.4-43.9s-32.47-59.37-32.34-65.16,74.12-75.26,81.74-81.5a15.61,15.61,0,0,0,4-6.47C519.1,43.48,442.44,109.06,442.32,114.27Z"/><path class="cls-6" d="M572.72,326a7.16,7.16,0,0,1-1.52-1.44,97.2,97.2,0,0,1-7.42-10.61,7,7,0,0,0-6.6-3.56l-30.26,1.79a7.42,7.42,0,0,0-6.82,8.25l7.31,70.2a7.26,7.26,0,0,0,2.41,4.82c27.24,23.18,104.42,28.27,104.42,28.27-33.22-.08-115.78,42.08-115.78,42.08s-5.13,44.46-1.85,43.58,11.32-24.52,14.74-27.59,163.95-15.16,157.58-47.5C682.89,403.59,583,333.14,572.72,326Z"/><path class="cls-9" d="M572.72,326a7.16,7.16,0,0,1-1.52-1.44,97.2,97.2,0,0,1-7.42-10.61,7,7,0,0,0-6.6-3.56l-30.26,1.79a7.42,7.42,0,0,0-6.82,8.25l7.31,70.2a7.26,7.26,0,0,0,2.41,4.82c27.24,23.18,104.42,28.27,104.42,28.27-33.22-.08-115.78,42.08-115.78,42.08s-1,8.33-1.78,17.7c5.53-5.72,12.13-11.35,18.13-13.34,13.81-4.6,85.54-27.38,98.45-32,5.85-2.1,9,10.19,10.79,24.26,26.83-7,47.23-16.15,44.88-28.09C682.89,403.59,583,333.14,572.72,326Z"/><path class="cls-6" d="M511.63,616.49c6.5-32.56,1.85-90.09,1.85-90.09L526.7,395.28l5-89.87s1.91-43.87-52.88,5.18,4.74,213.76,4.74,213.76c-9.37,58.77,10.1,134.91,10.1,134.91l-12.46,25.55s28.36,8.55,30-.14-6-22.41-6-22.41S505.12,649,511.63,616.49Z"/><path class="cls-9" d="M511.63,616.48c6.5-32.55,1.85-90.08,1.85-90.08L526.7,395.28l5-89.87s-7.12-52.8-52.88,5.18c-44.44,56.31,4.74,213.76,4.74,213.76-.57,3.53-1,7.12-1.38,10.75,8.57,5,17.62,11.92,18.94,19.53,2.58,15-2.16,97.75-1.77,105.16.23,4.24,1,17.84,1.6,28.74,5.25.24,9.65-.59,10.27-3.86,1.66-8.69-6-22.41-6-22.41S505.12,649,511.63,616.48Z"/><path class="cls-10" d="M531.75,305.41s1.91-43.87-52.88,5.18l4.74,213.76a222.72,222.72,0,0,0-2.54,33.59,292,292,0,0,0,33.93,2c-.33-18.76-1.52-33.5-1.52-33.5L526.7,395.28Z"/><path class="cls-11" d="M570.77,324c-.59-.41-2.17-3.43-2.62-4-1.54-2-6.2-3.44-8.29-7.18a7.07,7.07,0,0,0-6.6-3.55l-22.21,1.31.27-4.8s-14.05-56.68-57.06,3.47c-40.75,57-5.26,205.89-5.26,205.89-1.72,10.81,4.87,55.58,4.8,67,8.52,1,28.53-1.25,42.63-1.19-.33-18.77-2.26-53.73-2.26-53.73l12.1-131.54.06-1c27.61,22.88,104,27.92,104,27.92a72.61,72.61,0,0,0-14.85,1.86c1.29,6.65,6.33,29.28,14.73,42.17,31.84-7.25,62.3-17.9,58.51-33.34C681.25,403,581,331.15,570.77,324Z"/><g class="cls-12"><path class="cls-13" d="M584.38,335.87a7,7,0,0,0,1.52,1.45c5.39,3.76,35.5,25,63.75,48.72-23.7-21.56-52.92-43.38-68.82-54.87C582.25,333.14,583.6,334.89,584.38,335.87Z"/><path class="cls-13" d="M554.49,307.87l-9.55.57a52,52,0,0,1,3.49,9.78l-.27,4.8,20.18-1.19a96.14,96.14,0,0,1-7.25-10.4A7.06,7.06,0,0,0,554.49,307.87Z"/><path class="cls-13" d="M476.92,307.84c-40.75,57-6.69,205.91-6.69,205.91-1.72,10.8,4.87,55.57,4.8,67,3.6.44,8.93.25,14.9-.09-1.75-17.91-5.11-45-3.82-53,0,0-34.06-148.93,6.69-205.92,15.84-22.15,27.55-28.43,36-27.55C522.52,281.17,507.31,265.34,476.92,307.84Z"/><path class="cls-13" d="M618.66,431.78c2.24,9,6.13,21.52,12.09,30.66,2.82-.64,5.57-1.31,8.28-2a160.2,160.2,0,0,1-6.45-23.54A72.52,72.52,0,0,1,647.42,435S635.14,434.22,618.66,431.78Z"/></g><path class="cls-14" d="M557,83.11c-4.43-3.68-6.6-3.44-6.6-3.44a8.34,8.34,0,0,0-4.78-6c-4.4-2.25-28.21,1.83-33.69.54s-6.5-3-6.5-3-3.53,5.34,0,10.65c0,0-8.58-.33-9.84-2.23,0,0-2.12,7,3.11,11.9l-2.64-.31s2.1,6.38,6.15,8.21c0,0-.13,5.58,1.53,9.07a23.4,23.4,0,0,0,4.88,6.36l43.33,3,3.12-6.72S561.42,86.79,557,83.11Z"/><path class="cls-6" d="M546.4,157.41l-1.27-25.57-31-2.12-4.82,26.54c-14.25,1.37-42.22,11-47,16.17-6.94,7.59,6.18,147.11,6.18,147.11l48.56,2.93,0,.4,1.47-.09,1.44.29,0-.39,45.51.21s38.75-128.82,31.22-139.7C591,174.94,560.31,160.2,546.4,157.41Z"/><path class="cls-6" d="M546.4,157.41l-1.27-25.57-31-2.12-4.82,26.54c-14.25,1.37-42.22,11-47,16.17-6.94,7.59,6.18,147.11,6.18,147.11l48.56,2.93,0,.4,1.47-.09,1.44.29,0-.39,45.51.21s38.75-128.82,31.22-139.7C591,174.94,560.31,160.2,546.4,157.41Z"/><path class="cls-14" d="M565.71,220.73c-1-14.68,6.37-40.31,12-51-3.83-2.15-8.7-5-12.94-7-3.83,6.47-14.08,31.46-36.12,30.84-20.7-.59-30-25.12-35.56-34-4.13,1.31-6.94,1.95-10.51,3.4,2.44,12.05-1.07,43.24-8.6,62.2-3.15,7.94-7.72,7-11.91,11.06,2.43,37.84,6.5,83.3,6.5,83.3l48.56,2.93,0,.4,1.47-.09,1.44.29,0-.39,45.51.21s12.28-42.1,21-75.64C575.61,241.66,566.54,232.51,565.71,220.73Z"/><g class="cls-15"><path class="cls-13" d="M537.84,314l-1.43-.3-1.47.1,0-.4-48.56-2.93s-12.54-40-10.53-69.49c4.18-4,12.79-16.94,15.94-24.88,4.78-12,7.94-29,9-42.85-3.27-5.35-5.74-10.51-7.72-13.68-4.13,1.31-6.94,1.95-10.51,3.4,2.44,12.05-1.07,43.24-8.6,62.2-3.15,7.94-7.72,7-11.91,11.06,2.43,37.84,6.5,83.3,6.5,83.3l48.56,2.93,0,.4,1.47-.1,1.44.3,0-.39,45.51.21s1-3.48,2.64-9.13l-30.3-.15Z"/></g><path class="cls-9" d="M514.18,129.72l-4.82,26.54a109.64,109.64,0,0,0-18.7,4l1,1.18s12.69,2.1,19.17,1.31,13.3-13.07,22.88-12c4.64.51,8.88-2.27,12.06-5.28l-.68-13.64Z"/><path class="cls-6" d="M550.9,111.14s-4.25-7-8.66-21.38c0,0-16.33,12.24-28.49,7.66-.77-.29-4.34,11.72-4.94,11.22-1.7-.81-3.94-5.36-5.73-3.12-2.51,3.11,1.16,18.17,4.78,16,3.17,12.35,10.83,21.23,20.37,21.88s18.38-7.13,23.19-19c3.24,3.07,6.47-11.55,6-15.61C557.05,106.14,553.45,109.83,550.9,111.14Z"/><path class="cls-9" d="M516,117.36a181.74,181.74,0,0,1,.7-19.2,15.43,15.43,0,0,1-2.9-.74c-.77-.29-4.34,11.72-4.94,11.22-1.7-.81-3.94-5.36-5.73-3.12-2.51,3.11,1.16,18.17,4.78,16,3.17,12.35,10.84,21.23,20.37,21.88a16.33,16.33,0,0,0,5.52-.65C525.47,137,516.05,128.21,516,117.36Z"/><g id="Layer_2-2" data-name="Layer 2"><path class="cls-14" d="M365.24,223.57c3.63-9.24,10.24-13.73.47-21.21s-2.92-22.09-8.81-27.74-12.82-9.82-24.41-4.74c0,0-26.52-4.69-27.64,12.67s-9.89,20-11.47,30.61,15.86,17.47,7.38,24.4-22.57,6.22-15.48,16.25,5.91,7.33.47,20.1,84,25.95,86.66,2.39-9.67-17.51,1.87-26.45S361.62,232.8,365.24,223.57Z"/><path class="cls-16" d="M354.54,189.57c-6.31-3.81-22.88-6.59-23.22-12.11,0,0-10.51,14.07-17.61,13.44s-10.86,7.36-7.92,15.19,11,22.27,3.94,29.15-10.66,11.3.49,20.92,6,6.19,10.15,17.55,24.87,20.37,32.78,4.78c.56-1.11,8.62-28.64,2.6-36.8S346,224.53,351.7,216.5,360.85,193.38,354.54,189.57Z"/><path class="cls-6" d="M331.08,367.92l-26.44-2.7a6.23,6.23,0,0,0-5.92,2.79,82.6,82.6,0,0,1-6.92,8.8,6,6,0,0,1-1.39,1.18c-9.27,5.73-99.59,62.2-106.1,88.25-6.86,27.45,133.29,44,136.16,46.78s9,23.32,11.83,24.2.1-37.4.1-37.4-70.65-39.3-99.76-40.52c0,0,67.81-1.37,92.6-20.17a6.22,6.22,0,0,0,2.3-4l9.18-59.84A6.38,6.38,0,0,0,331.08,367.92Z"/><path class="cls-9" d="M331.08,367.92l-26.44-2.7a6.23,6.23,0,0,0-5.92,2.79,82.6,82.6,0,0,1-6.92,8.8,6,6,0,0,1-1.39,1.18c-9.27,5.73-99.59,62.2-106.1,88.25-2.53,10.13,15,18.77,38.2,25.79,2.1-12,5.38-22.39,10.42-20.36,11.12,4.49,73.06,26.78,85,31.25,5.19,1.94,10.74,7,15.36,12.13-.35-8.06-.86-15.23-.86-15.23s-70.65-39.3-99.76-40.52c0,0,67.81-1.37,92.6-20.17a6.22,6.22,0,0,0,2.3-4l9.18-59.84A6.38,6.38,0,0,0,331.08,367.92Z"/><path class="cls-6" d="M370.27,368.5c-46.06-44.13-46.12-6.48-46.12-6.48l.86,77.17L331.4,552s-6.36,49.09-1.95,77.23,3.73,39.45,3.73,39.45-7.24,11.46-6.12,19,26.29,1.28,26.29,1.28l-9.9-22.36s20.07-64.47,14.2-115.16C357.65,551.4,416.32,412.63,370.27,368.5Z"/><path class="cls-9" d="M370.27,368.5c-46.06-44.13-46.12-6.48-46.12-6.48l.86,77.17L331.4,552s-6.36,49.09-1.95,77.23,3.73,39.45,3.73,39.45-7.24,11.46-6.12,19c.42,2.82,4.24,3.7,8.84,3.7,1-9.31,2.18-20.93,2.54-24.55.64-6.33-.23-77.42,2.62-90.13,1.46-6.47,9.66-12.06,17.37-16-.18-3.13-.43-6.22-.78-9.26C357.65,551.4,416.32,412.63,370.27,368.5Z"/><path class="cls-17" d="M370.11,369.56c-46.05-44.13-46.11-6.48-46.11-6.48l0,4.12-19.4-2a6.23,6.23,0,0,0-5.92,2.79,82.6,82.6,0,0,1-6.92,8.8,6,6,0,0,1-1.39,1.18c-9.27,5.73-99.59,62.2-106.1,88.25-2.86,11.43,19.8,21,47.4,28.41,7.87-10.71,12.47-27.53,13.86-33.18a65.68,65.68,0,0,0-12.93-2.17s67.11-1.36,92.21-19.88v.83l6.38,112.8s-1.62,12.58-2.66,28.64a258.35,258.35,0,0,0,29.8-.37,187.79,187.79,0,0,0-.89-28.87S416.16,413.69,370.11,369.56Z"/><path class="cls-6" d="M376,258.55c-3.12-7.12-19-13.36-29-16.68a6.35,6.35,0,0,1-4.31-6.4l1.15-20.74-23.44.54,1.85,21.32a6.34,6.34,0,0,1-4,6.49c-9.84,3.76-25.57,10.76-28.37,18.07-4.12,10.76,13,48,13.52,70,.32,13.72-4.53,28.41-8.22,37.5a6.37,6.37,0,0,0,6,8.76l68.76-.89a6.36,6.36,0,0,0,5.76-8.88c-4-9.32-9.61-24.61-9.93-38.54C365.24,307.12,380.61,269.12,376,258.55Z"/><path class="cls-9" d="M322.26,236.59a6.34,6.34,0,0,1-4,6.49c-9.84,3.76-25.57,10.76-28.37,18.07-4.12,10.76,13,48,13.52,70,.32,13.72-4.53,28.41-8.22,37.5a6.37,6.37,0,0,0,6,8.76l4.95-.06a6.32,6.32,0,0,0,6.08-4.84c3.57-14.74,10.64-36.29,9.95-42.3-1-8.67-15.73-16.23-18.73-26.83s8.14-38.9,12.31-46.11a17.65,17.65,0,0,1,8-7,6.43,6.43,0,0,0,3.8-6.72c-.68-4.65-1-10.7,2.2-10.28,2.53.33,7.23-2.92,11.37-6.31a6.42,6.42,0,0,0,2.34-4.6l.42-7.58-23.44.54Z"/><path class="cls-9" d="M210.31,458.23s-.32,9,11.91,15.53c5.2,2.8,10,8.37,13.77,13.85,5.26-10,8.47-21.62,9.58-26.14a65.68,65.68,0,0,0-12.93-2.17s67.11-1.36,92.21-19.88v.83l6.38,112.8s-1.62,12.58-2.66,28.64c4.58.19,8.72.23,12.64.22l.89-31.35s-4.89-119.46-6.61-125.74S232.44,461.94,210.31,458.23Z"/><path class="cls-6" d="M350.12,196.09s-14.46-4.07-18.76-14.33c0,0-8.61,17.65-18.07,15.1a5.16,5.16,0,0,1-1.63-.75c-1.33-.48-2.53-.48-2.77.91-.52,2.94,4.06,14.47,6.63,12.67,3.24,8.87,9.61,14.88,16.83,14.72s13.34-6.5,16.15-15.55c2.65,2,6.79-9.94,6.13-12.88C354.19,194,352,195,350.12,196.09Z"/><path class="cls-9" d="M324.92,195.93c4.12-1.64,6.48-7.38,7.76-11.87a16.32,16.32,0,0,1-1.32-2.3s-8.61,17.65-18.07,15.1a5.16,5.16,0,0,1-1.63-.75c-1.33-.48-2.53-.48-2.77.91-.51,2.94,4.06,14.47,6.63,12.67,2.92,8,8.41,13.64,14.76,14.55-7.16-5.28-12.16-15.93-12.25-19.73C317.93,200,317.9,198.72,324.92,195.93Z"/><path class="cls-6" d="M337.06,134.74s-1.76-13.15-4.06-14.22-3.17,18.32,2,23.27,54.62,59.31,54.34,63.45-26,29.23-27.83,44.37-6.69,21,14.22,32.84c0,0,42.44-54.77,38.74-76S337.06,134.74,337.06,134.74Z"/><path class="cls-18" d="M390.57,206.62c.25-3.72-43.86-53.64-58.11-67.71a11.17,11.17,0,0,0,2.53,4.88c5.15,4.94,54.62,59.31,54.34,63.45s-26,29.23-27.83,44.37-6.69,21,14.22,32.84l2.39-2.76c-13.36-9.35-9.41-15.52-7.82-28.85C372.11,237.7,390.29,210.76,390.57,206.62Z"/><path class="cls-6" d="M328.89,121.13c-2.27,1.13-3.68,14.32-3.68,14.32s-70.29,53.48-73.43,74.79,38.74,75.85,38.74,75.85c20.58-12.33,15.56-18.1,13.34-33.19s-28.61-39.51-29-43.65,47.62-59.73,52.64-64.81S331.16,120,328.89,121.13Z"/><path class="cls-19" d="M266.11,210.71c.38,4.13,26.78,28.56,29,43.65,1.95,13.28,6.06,19.35-7.05,29,1.53,1.7,2.47,2.7,2.47,2.7,20.58-12.33,15.56-18.1,13.34-33.19s-28.61-39.51-29-43.65,47.62-59.73,52.64-64.81a10.93,10.93,0,0,0,2.4-4.94C316,153.93,265.76,207,266.11,210.71Z"/><path class="cls-20" d="M357.84,244.6l-4.32-.37s3.46,21.55-1.87,29-29.37,11.25-38.43,3.63-3.67-30.74-3.67-30.74L304,247.7a6.36,6.36,0,0,0-4.36,4.16c-3.33,10.18-12.92,41.31-9.55,52.79,3.69,12.54,7.63,8.34,9.9,23.75a6.39,6.39,0,0,0,6.52,5.55c12.64-.51,42.26-3.18,54.94-4.35a6.33,6.33,0,0,0,5.75-6.17,40.65,40.65,0,0,1,.37-4.51c.73-5.08,5.34-10.79,8.84-23.75,2.85-10.53-9.49-35.5-13-46.25A6.35,6.35,0,0,0,357.84,244.6Z"/><g class="cls-21"><path class="cls-13" d="M312.31,315.48c-2.27-15.42-6.22-11.21-9.9-23.75-2.68-9.12,2.8-30.58,6.85-44.15.17-.88.29-1.42.29-1.42L304,247.7a6.36,6.36,0,0,0-4.36,4.16c-3.33,10.18-12.92,41.31-9.55,52.79,3.69,12.54,7.63,8.34,9.9,23.75a6.4,6.4,0,0,0,6.52,5.55c12.64-.52,42.26-3.18,54.94-4.35a6.34,6.34,0,0,0,5.76-6.17,38.29,38.29,0,0,1,.36-4.51,12.32,12.32,0,0,1,.39-1.71c-14.38,1.31-38.12,3.37-49.09,3.82A6.4,6.4,0,0,1,312.31,315.48Z"/></g></g><path class="cls-22" d="M653.17,581.56H642.28s-.17,1.27-.28,3.43c0,0-.61.41-.66.58-2.08,7.2-7.33,25.19-9.73,39.49-.43,2.55,2.11,8.28,2.11,10.25,0,10.69-1.85,11.25-1.84,19.48,0,9.75,0,16.87,0,23.78a6.55,6.55,0,0,0,6.33,2c5.54-1.27,3.75,2.35,9.84,2.34,5.36,0,3.59-3.22,9.21-2.11,4.93,1,6.44-2.2,6.44-2.2s.21-12.88.21-23.78c0-8.27-1.89-8-1.74-19.49,0-2,2.52-7.28,2.13-10-2.28-16.35-5.7-26.47-9.94-39.69-.05-.16-.78-.48-.78-.48C653.27,582.74,653.32,582.68,653.17,581.56Z"/><path class="cls-23" d="M638.18,680.54c5.54-1.27,3.75,2.35,9.84,2.34,5.36,0,3.59-3.22,9.21-2.11,4.93,1,6.44-2.2,6.44-2.2s.21-12.88.21-23.78c0-8.27-1.89-8-1.74-19.49,0-2,2.52-7.28,2.13-10-2.28-16.35-5.7-26.47-9.94-39.69-.05-.16-.78-.48-.78-.48-.18-1.53-.22-2.09-.27-2.6h.83c.15,1.13.09,1.18.37,3.54,0,0,.73.32.78.48,4.24,13.21,7.66,23.33,10,39.68.38,2.76-2.11,8-2.14,10-.15,11.45,1.74,11.22,1.74,19.49,0,10.9-.21,23.78-.21,23.78s-1.51,3.17-6.43,2.2c-5.63-1.1-3.85,2.11-9.21,2.12-6.1,0-4.31-3.62-9.85-2.35a6.56,6.56,0,0,1-6.33-2v-.1A6.46,6.46,0,0,0,638.18,680.54Z"/><path class="cls-22" d="M651.68,682.15a5.09,5.09,0,0,1-1.7.77A4.18,4.18,0,0,1,651.68,682.15Z"/><g class="cls-24"><path class="cls-25" d="M632.68,625.55c1.78-10.67,4.14-18.48,6.21-28.23l18,0c3.34,10.62,5.64,23.59,6,28.23.18,2.47-2.1,7.93-2.13,9.84-.14,12,1.73,11.28,1.74,19.69,0,10.9-.22,22.1-.22,22.1s-.36,3.17-5.28,2.21c-5.62-1.11-3.85,2.11-9.21,2.11-6.09,0-4.09-3.61-9.63-2.34-4,.91-5.18-2-5.18-2,0-6.92.14-12.36.13-22.11,0-8.58,1.77-7.81,1.74-19.69C634.79,633.77,632.36,627.51,632.68,625.55Z"/></g><path class="cls-26" d="M640.79,583a1.37,1.37,0,0,0,1.41,1.33h11.08a1.37,1.37,0,0,0,1.41-1.33v-4.07a1.38,1.38,0,0,0-1.42-1.33H642.2a1.38,1.38,0,0,0-1.42,1.33Z"/><polygon class="cls-27" points="645 585.34 642.71 585.34 636.51 612.05 641.81 612.04 645 585.34"/><path class="cls-26" d="M632.89,627.1a8.8,8.8,0,0,1-.21-1.55c0-1.27,1.89-9.19,3.38-16.06,12.91,1.62,18.19.6,24-.13,1,6,2.24,10.52,2.73,16.17a10.73,10.73,0,0,1-.11,1.14C656.72,627.67,649.1,629.38,632.89,627.1Z"/><g class="cls-24"><rect class="cls-28" x="641.86" y="584.48" width="11.41" height="0.36"/></g><g class="cls-24"><rect class="cls-28" x="641.86" y="584.76" width="11.41" height="0.36"/></g><path class="cls-29" d="M707.38,619.93s-4.88,6.37-22.82,14.39c-22.1,9.88-44.15-6.88-44.15-6.88l-5.63,4.81s4.21,10.59,12.78,16.64c18.69,13.19,40.56,10.66,54,1.83s20.5-17,24-26.5c4.62-12.61-1.81-10.9-2.34-18.5-.21-3,0-8.83,0-8.83l-5-1.22a63.33,63.33,0,0,1-1.8,10.11C715.52,609.22,714.07,612.37,707.38,619.93Z"/><polygon class="cls-30" points="634.78 629.96 637.98 626.86 640.41 627.44 634.78 632.81 634.78 629.96"/><path class="cls-31" d="M668.42,643c19.58,1.54,29.3-4.8,36.64-12.08,7.7-7.64,13.67-11.94,15.8-34.63l-2.67-.64a63.33,63.33,0,0,1-1.8,10.11c-.87,3.44-2.32,6.59-9,14.15,0,0-4.88,6.37-22.82,14.39-22.1,9.88-44.15-6.88-44.15-6.88l-2.62,2.24.11.16S647,641.32,668.42,643Z"/><path class="cls-29" d="M718.06,622.11s-2.71,7.56-17.36,20.66c-18.05,16.13-44.16,6.88-44.16,6.88l-3.89,6.29s7.23,8.81,17.23,12c21.82,6.88,41.88-2.18,52-14.69s14.35-22.43,14.78-32.53c.57-13.43-5-9.84-7.86-16.92-1.1-2.75-2.66-8.42-2.66-8.42l-5.18.37a64.47,64.47,0,0,1,1.37,10.19C722.55,609.44,722.13,612.88,718.06,622.11Z"/><polygon class="cls-30" points="651.95 653.76 654.06 649.84 656.54 649.65 652.82 656.47 651.95 653.76"/><path class="cls-31" d="M688,656c19.12-4.49,26.45-13.48,31.23-22.66,5-9.61,9.39-15.53,4.51-37.78l-2.74.19a64.47,64.47,0,0,1,1.37,10.19c.21,3.54-.21,7-4.28,16.21,0,0-2.71,7.56-17.36,20.66-18.05,16.13-44.16,6.88-44.16,6.88l-1.81,2.93.15.11S667,660.88,688,656Z"/><path class="cls-32" d="M715.93,591.06a42.8,42.8,0,0,0,16.18,4.66v5.43l-18.62-5.43Z"/><path class="cls-33" d="M711,636.07a11.69,11.69,0,0,0,9.42-3.64c4.39-4.51,11.08-.86,11.08-.86s-5.81,8.84-17.89,5.66Z"/><path class="cls-34" d="M711.92,645.91a24.19,24.19,0,0,1,3.22-15.56c.36-.63.28-1.22-.25-1.52a1.25,1.25,0,0,0-1.83.53,27.57,27.57,0,0,0-3.17,17.49c.25,1.4.87,3.76,2.07,3.22C712.93,649.64,711.92,645.91,711.92,645.91Z"/><path class="cls-35" d="M734,645c-12.87-12.31-23.26-1.58-23.26-1.58s-10.61-10.51-23.24,2,6.95,53.88,23.66,39.41C728.12,699,746.83,657.26,734,645Z"/><path class="cls-36" d="M689.17,650.15s6.8-11.22,20.09-3.3c8.43,5-4.16,6.94-7.1,9.47s.3,18.43-2.87,18.12-10.12-3.84-11.07-10.66S687.27,655.71,689.17,650.15Z"/><path class="cls-37" d="M692.1,651.25s3.73-6.15,11-1.81c4.63,2.76-2.28,3.81-3.89,5.19s.17,10.11-1.57,9.93-5.55-2.1-6.07-5.84S691.06,654.3,692.1,651.25Z"/><path class="cls-38" d="M156.83,607.49l-19.73.06a4.22,4.22,0,0,0-4.21,4.24l0,11.27a4.23,4.23,0,0,0,4.24,4.22h1.36l.13,45.64h-1.36a4.23,4.23,0,0,0-4.22,4.24l0,11.27a4.23,4.23,0,0,0,4.24,4.22l19.72-.06a4.23,4.23,0,0,0,4.22-4.24l0-11.27a4.23,4.23,0,0,0-4.24-4.22h-1.36l-.14-45.65h1.37A4.23,4.23,0,0,0,161.1,623l0-11.27A4.23,4.23,0,0,0,156.83,607.49Z"/><rect class="cls-39" x="137.24" y="622.62" width="17.01" height="54.96" transform="translate(-1.87 0.42) rotate(-0.16)"/><polygon class="cls-40" points="149.86 677.56 154.33 677.55 154.17 622.6 150.2 622.61 149.86 677.56"/><path class="cls-41" d="M155.48,606.62a4.22,4.22,0,0,1,4.24,4.22l0,11.27a4.24,4.24,0,0,1-4.22,4.24l-19.73.06a4.24,4.24,0,0,1-4.24-4.22l0-11.27a4.22,4.22,0,0,1,4.22-4.24Z"/><rect class="cls-41" x="131.74" y="672.02" width="28.18" height="19.73" rx="4.23" transform="translate(-1.99 0.43) rotate(-0.17)"/><path class="cls-42" d="M155.54,626.35h0a4.24,4.24,0,0,0,4.22-4.24l0-11.27a4.23,4.23,0,0,0-4.1-4.22Z"/><path class="cls-42" d="M155.65,672v19.73h.08a4.23,4.23,0,0,0,4.21-4.24l0-11.27a4.23,4.23,0,0,0-4.24-4.22Z"/><path class="cls-38" d="M211.18,690l6.61-18.58a4.23,4.23,0,0,0-2.56-5.41l-10.62-3.78a4.23,4.23,0,0,0-5.4,2.57l-.46,1.28-43-15.31.45-1.28a4.23,4.23,0,0,0-2.56-5.4L143,640.3a4.23,4.23,0,0,0-5.4,2.57L131,661.45a4.23,4.23,0,0,0,2.56,5.4l10.62,3.78a4.22,4.22,0,0,0,5.4-2.56l.46-1.28,43,15.31-.46,1.28a4.23,4.23,0,0,0,2.57,5.4l10.61,3.79A4.25,4.25,0,0,0,211.18,690Z"/><rect class="cls-43" x="166.33" y="637.68" width="17" height="54.96" transform="translate(-510.44 606.71) rotate(-70.4)"/><polygon class="cls-44" points="147.59 659.75 146.09 663.95 197.86 682.39 199.19 678.65 147.59 659.75"/><path class="cls-41" d="M212.45,689a4.22,4.22,0,0,1-5.4,2.56l-10.62-3.78a4.22,4.22,0,0,1-2.56-5.4l6.61-18.58a4.24,4.24,0,0,1,5.4-2.57L216.5,665a4.25,4.25,0,0,1,2.57,5.41Z"/><path class="cls-45" d="M150.87,667.1a4.22,4.22,0,0,1-5.4,2.56l-10.62-3.78a4.23,4.23,0,0,1-2.57-5.4l6.62-18.58a4.23,4.23,0,0,1,5.4-2.57l10.62,3.78a4.25,4.25,0,0,1,2.57,5.41Z"/><path class="cls-46" d="M193.87,682.41h0a4.22,4.22,0,0,0,2.56,5.4l10.62,3.78a4.22,4.22,0,0,0,5.35-2.44Z"/><path class="cls-47" d="M150.88,667.08l-18.57-6.68,0,.08a4.23,4.23,0,0,0,2.57,5.4l10.62,3.78a4.22,4.22,0,0,0,5.4-2.56Z"/><path class="cls-48" d="M243.18,612.53h0V606.1h-46v6.43h0a9.85,9.85,0,0,0-9.86,9.85v62.41a9.85,9.85,0,0,0,9.86,9.86h46a9.85,9.85,0,0,0,9.86-9.86V622.38A9.85,9.85,0,0,0,243.18,612.53Z"/><rect class="cls-49" x="187.34" y="636.1" width="65.69" height="34.99"/><rect class="cls-49" x="195.25" y="598.81" width="49.32" height="10.52"/><rect class="cls-50" x="197.22" y="599.89" width="2.23" height="8.56" transform="translate(-2.92 0.97) rotate(-0.28)"/><rect class="cls-50" x="232.97" y="599.71" width="6.04" height="8.56" transform="translate(-3 1.18) rotate(-0.28)"/><rect class="cls-50" x="203.45" y="599.85" width="7.71" height="8.56" transform="translate(-2.98 1.03) rotate(-0.28)"/><rect class="cls-50" x="213.44" y="599.77" width="17.9" height="8.56" transform="translate(-3.01 1.12) rotate(-0.29)"/><rect class="cls-51" x="195.25" y="644.89" width="49.32" height="6.88"/><rect class="cls-52" x="200.79" y="656.13" width="38.25" height="7.87"/><g class="cls-53"><path class="cls-51" d="M199.75,609.34v5.94h0a8.94,8.94,0,0,0-8.76,9.11v57.69a8.94,8.94,0,0,0,8.76,9.11h12.74V609.34Z"/><path class="cls-51" d="M240.63,615.28h0v-5.94h-9.27v81.85h9.27a8.94,8.94,0,0,0,8.76-9.11V624.39A8.94,8.94,0,0,0,240.63,615.28Z"/></g><polygon class="cls-54" points="256.81 642.46 271.92 635.27 280.5 635.23 287.44 642.31 256.81 642.46"/><path class="cls-55" d="M257.35,644.27l0-7.46a3.22,3.22,0,0,1,3.53-3.2l14.2-.07v1.11l-14.2.07a2.33,2.33,0,0,0-2.49,2.42c0,1.93,0,7.12,0,7.12Z"/><path class="cls-55" d="M281.31,634.1c0,.78-.83,1.41-1.86,1.41l-6.46,0c-1,0-1.87-.61-1.87-1.39h0c0-.77.82-1.4,1.86-1.4l6.46,0c1,0,1.87.61,1.87,1.38Z"/><polygon class="cls-56" points="284.84 695.02 260.36 695.28 256.83 647.22 287.47 646.88 284.84 695.02"/><rect class="cls-57" x="254.41" y="641.95" width="35.44" height="7.51" transform="translate(-7.05 3.02) rotate(-0.63)"/><rect class="cls-50" x="255.56" y="643.16" width="1.27" height="5.51" transform="translate(-3.02 1.21) rotate(-0.27)"/><rect class="cls-50" x="275.91" y="643.06" width="3.44" height="5.51" transform="translate(-3.2 1.39) rotate(-0.28)"/><rect class="cls-50" x="257.7" y="643.14" width="5.68" height="5.5" transform="translate(-3.18 1.29) rotate(-0.28)"/><rect class="cls-50" x="264.26" y="643.1" width="10.72" height="5.5" transform="translate(-3.19 1.34) rotate(-0.28)"/><polygon class="cls-58" points="258.58 651.4 279.13 651.3 275.57 693.66 261.79 693.73 258.58 651.4"/><path class="cls-59" d="M628.63,679.24a4,4,0,0,1-3.92,4.11l-87.24.4a4,4,0,0,1-4-4.07l-.25-54.87a4,4,0,0,1,3.91-4.11l87.25-.39a4,4,0,0,1,4,4.07Z"/><path class="cls-60" d="M627.17,677.76a4,4,0,0,1-3.92,4.11l-87.24.39a4,4,0,0,1-4-4.07l-.25-54.86a4,4,0,0,1,3.91-4.11l87.24-.4a4,4,0,0,1,4,4.07Z"/><path class="cls-61" d="M540.83,622.1a3.65,3.65,0,0,0-3.56,3.73l.23,49.81a3.66,3.66,0,0,0,3.59,3.7l37.81-.18-.26-57.24Z"/><path class="cls-62" d="M578.64,621.92l-37.81.18a3.65,3.65,0,0,0-3.56,3.73l0,3.38,41.38-.19Z"/><path class="cls-61" d="M617.89,621.75l-37.82.17.26,57.24,37.82-.18a3.63,3.63,0,0,0,3.55-3.72l-.23-49.82A3.63,3.63,0,0,0,617.89,621.75Z"/><path class="cls-62" d="M580.07,621.92l37.82-.17a3.63,3.63,0,0,1,3.58,3.69l0,3.39L580.1,629Z"/><path class="cls-63" d="M583.21,626.86a1,1,0,0,1-1,1l-5.78,0a1,1,0,0,1-1-1h0a1,1,0,0,1,1-1l5.78,0a1,1,0,0,1,1,1Z"/><path class="cls-63" d="M583.24,633.52a1,1,0,0,1-1,1l-5.78,0a1,1,0,0,1-1-1h0a1,1,0,0,1,1-1l5.78,0a1,1,0,0,1,1,1Z"/><path class="cls-63" d="M583.27,640.19a1,1,0,0,1-1,1l-5.78,0a1,1,0,0,1-1-1h0a1,1,0,0,1,1-1l5.78,0a1,1,0,0,1,1,1Z"/><path class="cls-63" d="M583.3,646.86a1,1,0,0,1-1,1l-5.78,0a1,1,0,0,1-1-1h0a1,1,0,0,1,1-1l5.78,0a1,1,0,0,1,1,1Z"/><path class="cls-63" d="M583.33,654.18a1,1,0,0,1-1,1l-5.78,0a1,1,0,0,1-1-1h0a1,1,0,0,1,1-1l5.78,0a1,1,0,0,1,1,1Z"/><path class="cls-63" d="M583.36,660.85a1,1,0,0,1-1,1l-5.79,0a1,1,0,0,1-1-1h0a1,1,0,0,1,1-1l5.78,0a1,1,0,0,1,1,1Z"/><path class="cls-63" d="M583.39,667.52a1,1,0,0,1-1,1l-5.78,0a1,1,0,0,1-1-1h0a1,1,0,0,1,1-1l5.78,0a1,1,0,0,1,1,1Z"/><path class="cls-63" d="M583.42,674.18a1,1,0,0,1-1,1l-5.78,0a1,1,0,0,1-1-1h0a1,1,0,0,1,1-1l5.78,0a1,1,0,0,1,1,1Z"/><rect class="cls-64" x="588.25" y="643.12" width="4.43" height="11.06" transform="translate(-2.86 2.61) rotate(-0.25)"/><rect class="cls-64" x="595.39" y="647.53" width="4.43" height="6.63" transform="translate(-3.07 2.83) rotate(-0.27)"/><rect class="cls-65" x="602.51" y="639.5" width="4.43" height="14.62" transform="translate(-2.95 2.77) rotate(-0.26)"/><rect class="cls-64" x="609.64" y="639.71" width="4.43" height="14.38" transform="translate(-2.85 2.7) rotate(-0.25)"/><path class="cls-64" d="M591.09,640.93a.78.78,0,1,1-.78-.77A.78.78,0,0,1,591.09,640.93Z"/><path class="cls-64" d="M598.35,645.14a.78.78,0,1,1-.78-.77A.77.77,0,0,1,598.35,645.14Z"/><path class="cls-64" d="M605.43,634.62a.78.78,0,1,1-.78-.77A.77.77,0,0,1,605.43,634.62Z"/><path class="cls-64" d="M612.59,637.09a.78.78,0,1,1-1.55,0,.78.78,0,0,1,.77-.77A.77.77,0,0,1,612.59,637.09Z"/><polygon class="cls-64" points="597.63 645.38 590.22 641.09 590.4 640.78 597.52 644.91 604.59 634.41 611.88 636.92 611.76 637.26 604.73 634.83 597.63 645.38"/><rect class="cls-66" x="588.32" y="663.91" width="4.43" height="3.71" transform="translate(-3.04 2.71) rotate(-0.26)"/><rect class="cls-63" x="595.45" y="664.32" width="18.71" height="0.72" transform="translate(-3.25 2.97) rotate(-0.28)"/><rect class="cls-63" x="595.46" y="666.37" width="18.71" height="0.72" transform="translate(-3.26 2.97) rotate(-0.28)"/><rect class="cls-67" x="588.35" y="669.38" width="4.43" height="3.71" transform="translate(-3.06 2.7) rotate(-0.26)"/><rect class="cls-63" x="595.48" y="669.79" width="18.7" height="0.72" transform="translate(-3.24 2.94) rotate(-0.28)"/><rect class="cls-63" x="595.49" y="671.84" width="18.71" height="0.72" transform="translate(-3.25 2.94) rotate(-0.28)"/><rect class="cls-68" x="588.3" y="658.2" width="4.43" height="3.71" transform="translate(-2.9 2.61) rotate(-0.25)"/><rect class="cls-63" x="595.43" y="658.6" width="18.71" height="0.72" transform="translate(-3.22 2.97) rotate(-0.28)"/><rect class="cls-63" x="595.44" y="660.66" width="18.71" height="0.72" transform="translate(-3.23 2.97) rotate(-0.28)"/><rect class="cls-63" x="545.63" y="637.21" width="25.3" height="0.72" transform="translate(-3.09 2.72) rotate(-0.28)"/><rect class="cls-63" x="545.65" y="641.33" width="25.3" height="0.72" transform="translate(-3.14 2.75) rotate(-0.28)"/><rect class="cls-63" x="545.68" y="646.84" width="25.3" height="0.72" transform="translate(-3.16 2.74) rotate(-0.28)"/><rect class="cls-63" x="545.69" y="650.95" width="25.3" height="0.72" transform="translate(-3.19 2.75) rotate(-0.28)"/><rect class="cls-63" x="545.72" y="656.76" width="25.3" height="0.72" transform="translate(-3.21 2.74) rotate(-0.28)"/><rect class="cls-63" x="545.74" y="660.88" width="25.3" height="0.72" transform="translate(-3.24 2.75) rotate(-0.28)"/><rect class="cls-63" x="545.77" y="666.64" width="25.3" height="0.72" transform="translate(-3.23 2.72) rotate(-0.28)"/><rect class="cls-63" x="545.78" y="670.76" width="25.3" height="0.72" transform="translate(-3.29 2.75) rotate(-0.28)"/></g></g></g></svg>