<svg id="Capa_1" enable-background="new 0 0 511.871 511.871" height="512" viewBox="0 0 511.871 511.871" width="512" xmlns="http://www.w3.org/2000/svg"><g><g><path d="m203.371 73.9c0-3.904-3.165-7.069-7.069-7.069h-21.956c-3.071 0-5.79 1.983-6.73 4.906l-12.814 39.877-6.923 18.472h55.491v-56.186z" fill="#d7d0d6"/><path d="m265.264 224.174c-3.4 0-6.16 2.76-6.16 6.16v79.56 17.514h26.325l3.975-17.514v-85.72z" fill="#baafb9"/><path d="m238.474 309.894h-38.92c-2.94 0-5.31 2.38-5.31 5.31v18.78c0 2.93 2.37 5.31 5.31 5.31h48.022v-22.345z" fill="#baafb9"/><path d="m289.404 309.894v76.56h-58.6v-68.89c0-4.24 3.44-7.67 7.67-7.67z" fill="#80d261"/><path d="m373.181 244.357c0 .021-.008.041-.023.055l-30.083 30.083c-9.424 9.424-14.719 22.207-14.719 35.535v58.662 17.758h81.052v-255h-37.301z" fill="#d7d0d6"/><path d="m495.925 253.54h-80.589l-24.352 17.104-28.54 28.54c-.8.8-1.51 1.69-2.09 2.64l33.505 18.315h100.096l10.419-18.315v-31.18z" fill="#97da7b"/><path d="m360.354 301.824c-1.46 2.33-2.25 5.05-2.25 7.84v60.13l35.66 19.966h100.263l10.347-19.966v-67.97z" fill="#80d261"/><path d="m358.243 369.872 35.521 19.889h100.263l2.511-4.846c-4.296-35.32-34.445-62.778-70.906-62.778-31.086 0-57.585 19.962-67.389 47.735z" fill="#68ca44"/><path d="m168.084 369.794c-3.1 0-5.62-2.51-5.62-5.62l-.221-126.166h-96.813l-17.826 17.826v83.46l70.24 59.61h378.72c4.31 0 7.81-3.49 7.81-7.81v-21.3z" fill="#97da7b"/><g><path d="m58.954 341.424c-28.77 0-52.17 23.4-52.17 52.16 0 28.77 23.4 52.17 52.17 52.17 28.76 0 52.17-23.4 52.17-52.17 0-28.76-23.41-52.16-52.17-52.16z" fill="#918291"/><path d="m105.334 417.424c3.691-7.151 5.79-15.252 5.79-23.84 0-20.209-11.566-37.758-28.418-46.415h-25.517c3.986-2.047 8.265-3.6 12.76-4.569-3.547-.764-7.224-1.177-10.996-1.177-28.77 0-52.17 23.4-52.17 52.16 0 28.77 23.4 52.17 52.17 52.17 3.772 0 7.467-.406 11.015-1.17-23.503-5.064-41.19-26.003-41.19-51 0-3.256.301-6.443.876-9.534 1.01-5.432 7.151-8.172 11.876-5.307z" fill="#7a6d79"/><g><path d="m81.124 393.584c0 12.25-9.93 22.17-22.17 22.17-12.25 0-22.17-9.92-22.17-22.17 0-12.24 9.92-22.16 22.17-22.16 12.24 0 22.17 9.92 22.17 22.16z" fill="#7a6d79"/></g><path d="m42.16 379.125 37.389 22.667c1.013-2.539 1.575-5.306 1.575-8.207 0-12.24-9.93-22.16-22.17-22.16-6.717-.001-12.73 2.987-16.794 7.7z" fill="#685e68"/><path d="m65.43 238.008-17.826 17.826v83.46l70.24 59.61h5.439 17.066c.116-1.773.176-3.55.176-5.316 0-34.024-20.943-63.237-50.611-75.452-9.286-3.823-15.436-12.761-15.436-22.804v-51.416l73.61-.892c3.262 0 6.125-2.036 7.254-5.017h-89.912z" fill="#80d261"/><path d="m58.952 332.015c-13.128 0-25.287 4.117-35.278 11.121-2.61 1.829-2.457 5.751.269 7.403l89.376 54.184c2.751 1.668 6.285-.063 6.698-3.254.334-2.58.509-5.21.509-7.881-.001-34.006-27.568-61.573-61.574-61.573z" fill="#97da7b"/><path d="m354.181 393.588c0 1.79.089 3.559.219 5.316h142.165c.102 0 .201-.011.302-.015.129-1.753.218-3.516.218-5.301 0-8.341-1.45-16.346-4.089-23.794h-134.726c-2.639 7.448-4.089 15.453-4.089 23.794z" fill="#80d261"/><circle cx="425.632" cy="393.588" fill="#918291" r="51.452"/><path d="m396.233 393.588c0-24.63 17.335-45.217 40.45-50.266-3.553-.776-7.264-1.185-11.05-1.185-28.416 0-51.452 23.036-51.452 51.452s23.036 51.452 51.452 51.452c3.786 0 7.517-.418 11.07-1.194-23.116-5.05-40.47-25.629-40.47-50.259z" fill="#7a6d79"/><circle cx="425.632" cy="393.588" fill="#7a6d79" r="20.898"/><path d="m78.185 332.015h-37.619c-5.782 0-10.469-4.687-10.469-10.469v-17.322c0-5.782 4.687-10.469 10.469-10.469h6.786c17.948 0 32.498 14.55 32.498 32.498v4.096c0 .921-.745 1.666-1.665 1.666z" fill="#fee97d"/><g id="XMLID_198_"><g><g id="XMLID_199_"><g><path d="m504.154 183.554-13.499-16.329h-73.83l-13.891 16.499v68.84c0 3.93-1.56 7.7-4.34 10.48l-7.6 7.6h113.38v-81.33c0-1.94-.07-3.86-.22-5.76z" fill="#fee97d"/></g></g><path d="m426.674 111.614h-238.58l-12.277 11.884v26.649l12.277 5.237h206.83c4.42 0 8.01 3.59 8.01 8.01v20.33l101.22-.17c-2.94-40.22-36.51-71.94-77.48-71.94z" fill="#fee45a"/><path d="m109.942 126.871-5.468 14.143-48.27 83.46 2.637 11.931h83.013l21.562-109.534z" fill="#99e6fc"/><path d="m79.85 226.561 48.27-83.46 5.468-14.144h29.417l.411-2.086h-53.474l-5.468 14.143-48.27 83.46 2.637 11.931h23.185z" fill="#62dbfb"/><path d="m188.094 155.384v5.805c0 1.32-.144 2.635-.431 3.923l-19.069 85.802c-.639 2.875-3.189 4.92-6.133 4.92h-114.857v-13.68c0-1.86.49-3.69 1.42-5.3l7.18-12.38 65.01.36c3.61 0 6.74-2.49 7.56-6l16.32-69.8c.92-3.96-2.08-7.74-6.14-7.74h-32.53c-.68 0-1.33-.1-1.95-.28-2.89-.84-4.99-3.51-4.99-6.66v-15.8c0-3.83 3.1-6.94 6.94-6.94h81.67z" fill="#fee97d"/><path d="m74.478 255.834c0-6.605 5.312-11.982 11.917-12.062l61.693-.747c3.61 0 6.74-2.49 7.56-6l16.32-98.8c.92-3.96-2.08-7.74-6.14-7.74 0 0-39.86-.1-40.48-.28-2.89-.84-4.99-3.51-4.99-6.66v-11.93h-13.933c-3.833 0-6.94 3.107-6.94 6.94v15.8c0 3.15 2.1 5.82 4.99 6.66.62.18 1.27.28 1.95.28h32.53c4.06 0 7.06 3.78 6.14 7.74l-16.32 69.8c-.82 3.51-3.95 6-7.56 6l-65.01-.36-7.18 12.38c-.93 1.61-1.42 3.44-1.42 5.3v13.68z" fill="#fee45a"/></g></g></g></g><g><path d="m426.671 104.114h-154.905c-4.143 0-7.5 3.358-7.5 7.5s3.357 7.5 7.5 7.5h154.905c34.235 0 62.807 24.639 68.958 57.112h-24.966c-4.143 0-7.5 3.358-7.5 7.5s3.357 7.5 7.5 7.5h26.208v71.922h-89.1c1.736-3.214 2.661-6.826 2.661-10.581v-61.341h28.269c4.143 0 7.5-3.358 7.5-7.5s-3.357-7.5-7.5-7.5h-28.269v-12.828c0-8.553-6.959-15.512-15.513-15.512h-199.323v-28.771h44.207c4.143 0 7.5-3.358 7.5-7.5s-3.357-7.5-7.5-7.5h-28.932v-30.215c0-8.033-6.535-14.568-14.568-14.568h-21.956c-6.353 0-11.927 4.063-13.87 10.111l-11.141 34.671h-42.915c-7.963 0-14.441 6.479-14.441 14.441v15.795c0 3.199 1.059 6.149 2.826 8.545l-13.233 22.835c-2.077 3.583-.855 8.172 2.729 10.25 1.185.686 2.478 1.012 3.754 1.012 2.588 0 5.105-1.341 6.496-3.741l14.174-24.458h28.719l-15.976 68.338c-.027.119-.132.201-.255.201h-52.207l9.385-16.196c2.077-3.584.855-8.173-2.729-10.25-3.585-2.077-8.174-.855-10.25 2.729l-22.876 39.476c-1.594 2.749-2.437 5.882-2.437 9.062v44.127c-9.693.249-17.505 8.194-17.505 17.945v17.322c0 4.195 1.471 8.035 3.892 11.092-2.443 1.306-4.826 2.747-7.121 4.356-3.301 2.314-5.19 6.104-5.057 10.14.071 2.16.731 4.204 1.843 5.968-10.339 10.869-16.152 25.181-16.152 40.485 0 32.506 26.446 58.951 58.952 58.951 25.549 0 47.681-16.246 55.723-39.734.31.025.62.063.931.063 1.761 0 3.526-.393 5.171-1.184 2.485-1.196 4.415-3.186 5.572-5.597h241.678c5.75 26.52 29.389 46.451 57.605 46.451 28.103 0 51.66-19.772 57.531-46.131h13.397c8.442 0 15.311-6.868 15.311-15.311v-201.781c0-46.98-38.221-85.201-85.2-85.201zm-1.038 230.523c-21.015 0-39.485 11.062-49.926 27.66h-10.099v-52.633c0-.115.011-.228.017-.343h131.247v51.872h-22.022c-10.556-15.984-28.671-26.556-49.217-26.556zm-58.889 56.451h-238.777c-.963-26.897-17.376-49.907-40.617-60.431v-4.403c0-19.404-13.891-35.619-32.249-39.238v-23.678h99.864v100.838c0 7.235 5.886 13.121 13.12 13.121h200.902c-1.269 4.41-2.043 9.026-2.243 13.791zm-294.393 2.5c0 7.388-6.011 13.398-13.398 13.398s-13.398-6.011-13.398-13.398c0-7.211 5.73-13.094 12.874-13.372l12.613 7.647c.855 1.792 1.309 3.743 1.309 5.725zm-40.301-46.904c8.162-4.703 17.371-7.168 26.902-7.168 29.816 0 54.073 24.257 54.073 54.073 0 .718-.015 1.438-.044 2.16zm191.258-14.891h-21.564v-14.399h21.573c-.001.056-.009.111-.009.167zm15-14.231c0-.092.075-.167.167-.167h43.433v44.902h-43.6zm82.548 44.734h-23.949v-199.41h68.773v78.397l-27.908 27.908c-10.908 10.907-16.916 25.411-16.916 40.838zm-38.949-59.902h-15.3v-70.715h15.3zm214.964-8.074h-118.949l16.172-16.172h102.778v16.172zm-101.438-130.922v89.169c0 1.953-.761 3.79-2.143 5.171l-36.146 36.147c-4.215 4.214-6.536 9.817-6.536 15.778v52.633h-14.751v-52.266c0-11.421 4.447-22.157 12.522-30.232l30.083-30.083c1.406-1.406 2.219-3.369 2.219-5.358v-81.471h14.239c.282 0 .513.23.513.512zm-113.526-.512v53.793h-16.646c-7.529 0-13.654 6.125-13.654 13.655v72.061h-13.133-38.924c-7.062 0-12.807 5.745-12.807 12.806v18.787c0 7.061 5.745 12.806 12.807 12.806h23.758v15.503h-53.342v-101.162c2.951-1.906 5.139-4.926 5.953-8.589l19.498-87.743c.119-.534.179-1.08.179-1.627v-.29zm-107.246-88.554h21.21v29.783h-30.78zm-53.447 158c7.129 0 13.24-4.848 14.861-11.788l16.319-69.805c.964-4.128.006-8.4-2.629-11.721-2.634-3.321-6.576-5.225-10.814-5.225h-31.972v-14.678h73.616v43.238l-19.107 85.985h-106.386v-6.185c0-.54.143-1.071.414-1.539l4.799-8.282zm-83.617 71.892c0-1.637 1.332-2.969 2.969-2.969h6.786c13.2 0 24.043 10.284 24.939 23.26h-31.726c-1.637 0-2.969-1.332-2.969-2.969v-17.322zm21.355 133.316c-24.235 0-43.952-19.717-43.952-43.952 0-12.066 4.828-23.324 13.394-31.58l14.05 8.518c-7.187 5.156-11.89 13.562-11.89 23.063 0 15.659 12.739 28.398 28.398 28.398 14.305 0 26.167-10.633 28.113-24.409l14.019 8.499c-5.435 18.496-22.42 31.463-42.132 31.463zm366.681 0c-24.235 0-43.952-19.717-43.952-43.952s19.717-43.951 43.952-43.951c24.234 0 43.951 19.716 43.951 43.951s-19.717 43.952-43.951 43.952zm70.928-46.132h-12.032c-.193-5.276-1.07-10.379-2.567-15.216h14.909v14.906c0 .171-.14.31-.31.31z"/><path d="m425.633 365.189c-15.659 0-28.398 12.739-28.398 28.398s12.739 28.399 28.398 28.399 28.398-12.74 28.398-28.399-12.739-28.398-28.398-28.398zm0 41.798c-7.388 0-13.398-6.011-13.398-13.399s6.011-13.398 13.398-13.398 13.398 6.011 13.398 13.398c0 7.388-6.01 13.399-13.398 13.399z"/></g></g></svg>